<svg width="329" height="324" viewBox="0 0 329 324" fill="none" xmlns="http://www.w3.org/2000/svg">
<g clip-path="url(#clip0_11_1075)">
<rect width="329" height="324" fill="#111111"/>
<rect x="18.5" y="115.5" width="13" height="13" rx="2.5" stroke="white"/>
<rect x="34" y="114" width="205" height="16" fill="#383C41"/>
<rect x="257" y="37" width="75" height="16" transform="rotate(90 257 37)" fill="#383C41"/>
<rect x="241" y="114" width="16" height="16" fill="#383C41"/>
<path d="M41.3438 120C41.2969 119.604 41.1068 119.297 40.7734 119.078C40.4401 118.859 40.0313 118.75 39.5469 118.75C39.1927 118.75 38.8828 118.807 38.6172 118.922C38.3542 119.036 38.1484 119.194 38 119.395C37.8542 119.595 37.7813 119.823 37.7813 120.078C37.7813 120.292 37.832 120.475 37.9336 120.629C38.0378 120.78 38.1706 120.906 38.332 121.008C38.4935 121.107 38.6628 121.189 38.8398 121.254C39.0169 121.316 39.1797 121.367 39.3281 121.406L40.1406 121.625C40.349 121.68 40.5807 121.755 40.8359 121.852C41.0938 121.948 41.3398 122.079 41.5742 122.246C41.8112 122.41 42.0065 122.621 42.1602 122.879C42.3138 123.137 42.3906 123.453 42.3906 123.828C42.3906 124.26 42.2773 124.651 42.0508 125C41.8268 125.349 41.4987 125.626 41.0664 125.832C40.6367 126.038 40.1146 126.141 39.5 126.141C38.9271 126.141 38.431 126.048 38.0117 125.863C37.5951 125.678 37.2669 125.421 37.0273 125.09C36.7904 124.759 36.6563 124.375 36.625 123.938H37.625C37.651 124.24 37.7526 124.49 37.9297 124.687C38.1094 124.883 38.3359 125.029 38.6094 125.125C38.8854 125.219 39.1823 125.266 39.5 125.266C39.8698 125.266 40.2018 125.206 40.4961 125.086C40.7904 124.964 41.0234 124.794 41.1953 124.578C41.3672 124.359 41.4531 124.104 41.4531 123.812C41.4531 123.547 41.3789 123.331 41.2305 123.164C41.082 122.997 40.8867 122.862 40.6445 122.758C40.4023 122.654 40.1406 122.562 39.8594 122.484L38.875 122.203C38.25 122.023 37.7552 121.767 37.3906 121.434C37.026 121.1 36.8438 120.664 36.8438 120.125C36.8438 119.677 36.9648 119.286 37.207 118.953C37.4518 118.617 37.7799 118.357 38.1914 118.172C38.6055 117.984 39.0677 117.891 39.5781 117.891C40.0938 117.891 40.5521 117.983 40.9531 118.168C41.3542 118.35 41.6719 118.6 41.9062 118.918C42.1432 119.236 42.2682 119.596 42.2813 120H41.3438ZM46.374 126.125C45.7959 126.125 45.2972 125.997 44.8779 125.742C44.4613 125.484 44.1396 125.125 43.9131 124.664C43.6891 124.201 43.5771 123.661 43.5771 123.047C43.5771 122.432 43.6891 121.891 43.9131 121.422C44.1396 120.951 44.4548 120.583 44.8584 120.32C45.2646 120.055 45.7386 119.922 46.2803 119.922C46.5928 119.922 46.9014 119.974 47.2061 120.078C47.5107 120.182 47.7881 120.352 48.0381 120.586C48.2881 120.818 48.4873 121.125 48.6357 121.508C48.7842 121.891 48.8584 122.362 48.8584 122.922V123.312H44.2334V122.516H47.9209C47.9209 122.177 47.8532 121.875 47.7178 121.609C47.585 121.344 47.3949 121.134 47.1475 120.98C46.9027 120.827 46.6136 120.75 46.2803 120.75C45.9131 120.75 45.5954 120.841 45.3271 121.023C45.0615 121.203 44.8571 121.437 44.7139 121.727C44.5706 122.016 44.499 122.326 44.499 122.656V123.188C44.499 123.641 44.5771 124.025 44.7334 124.34C44.8923 124.652 45.1123 124.891 45.3936 125.055C45.6748 125.216 46.0016 125.297 46.374 125.297C46.6162 125.297 46.835 125.263 47.0303 125.195C47.2282 125.125 47.3988 125.021 47.542 124.883C47.6852 124.742 47.7959 124.568 47.874 124.359L48.7646 124.609C48.6709 124.911 48.5133 125.177 48.292 125.406C48.0706 125.633 47.7972 125.81 47.4717 125.937C47.1462 126.063 46.7803 126.125 46.374 126.125ZM51.1826 118V126H50.2607V118H51.1826ZM55.3867 126.125C54.8086 126.125 54.3099 125.997 53.8906 125.742C53.474 125.484 53.1523 125.125 52.9258 124.664C52.7018 124.201 52.5898 123.661 52.5898 123.047C52.5898 122.432 52.7018 121.891 52.9258 121.422C53.1523 120.951 53.4674 120.583 53.8711 120.32C54.2773 120.055 54.7513 119.922 55.293 119.922C55.6055 119.922 55.9141 119.974 56.2188 120.078C56.5234 120.182 56.8008 120.352 57.0508 120.586C57.3008 120.818 57.5 121.125 57.6484 121.508C57.7969 121.891 57.8711 122.362 57.8711 122.922V123.312H53.2461V122.516H56.9336C56.9336 122.177 56.8659 121.875 56.7305 121.609C56.5977 121.344 56.4076 121.134 56.1602 120.98C55.9154 120.827 55.6263 120.75 55.293 120.75C54.9258 120.75 54.6081 120.841 54.3398 121.023C54.0742 121.203 53.8698 121.437 53.7266 121.727C53.5833 122.016 53.5117 122.326 53.5117 122.656V123.188C53.5117 123.641 53.5898 124.025 53.7461 124.34C53.9049 124.652 54.125 124.891 54.4063 125.055C54.6875 125.216 55.0143 125.297 55.3867 125.297C55.6289 125.297 55.8477 125.263 56.043 125.195C56.2409 125.125 56.4115 125.021 56.5547 124.883C56.6979 124.742 56.8086 124.568 56.8867 124.359L57.7773 124.609C57.6836 124.911 57.526 125.177 57.3047 125.406C57.0833 125.633 56.8099 125.81 56.4844 125.937C56.1589 126.063 55.793 126.125 55.3867 126.125ZM61.7109 126.125C61.1484 126.125 60.6641 125.992 60.2578 125.727C59.8516 125.461 59.5391 125.095 59.3203 124.629C59.1016 124.163 58.9922 123.63 58.9922 123.031C58.9922 122.422 59.1042 121.884 59.3281 121.418C59.5547 120.949 59.8698 120.583 60.2734 120.32C60.6797 120.055 61.1536 119.922 61.6953 119.922C62.1172 119.922 62.4974 120 62.8359 120.156C63.1745 120.312 63.4518 120.531 63.668 120.812C63.8841 121.094 64.0182 121.422 64.0703 121.797H63.1484C63.0781 121.523 62.9219 121.281 62.6797 121.07C62.4401 120.857 62.1172 120.75 61.7109 120.75C61.3516 120.75 61.0365 120.844 60.7656 121.031C60.4974 121.216 60.2878 121.478 60.1367 121.816C59.9883 122.152 59.9141 122.547 59.9141 123C59.9141 123.464 59.987 123.867 60.1328 124.211C60.2813 124.555 60.4896 124.822 60.7578 125.012C61.0286 125.202 61.3464 125.297 61.7109 125.297C61.9505 125.297 62.168 125.255 62.3633 125.172C62.5586 125.089 62.724 124.969 62.8594 124.812C62.9948 124.656 63.0911 124.469 63.1484 124.25H64.0703C64.0182 124.604 63.8893 124.923 63.6836 125.207C63.4805 125.488 63.2109 125.712 62.875 125.879C62.5417 126.043 62.1536 126.125 61.7109 126.125ZM68.0273 120V120.781H64.918V120H68.0273ZM65.8242 118.562H66.7461V124.281C66.7461 124.542 66.7839 124.737 66.8594 124.867C66.9375 124.995 67.0365 125.081 67.1563 125.125C67.2786 125.167 67.4076 125.187 67.543 125.187C67.6445 125.187 67.7279 125.182 67.793 125.172C67.8581 125.159 67.9102 125.148 67.9492 125.141L68.1367 125.969C68.0742 125.992 67.987 126.016 67.875 126.039C67.763 126.065 67.6211 126.078 67.4492 126.078C67.1888 126.078 66.9336 126.022 66.6836 125.91C66.4362 125.798 66.2305 125.628 66.0664 125.398C65.9049 125.169 65.8242 124.88 65.8242 124.531V118.562ZM74.2734 126.141C73.8932 126.141 73.5482 126.069 73.2383 125.926C72.9284 125.78 72.6823 125.57 72.5 125.297C72.3177 125.021 72.2266 124.687 72.2266 124.297C72.2266 123.953 72.2943 123.674 72.4297 123.461C72.5651 123.245 72.7461 123.076 72.9727 122.953C73.1992 122.831 73.4492 122.74 73.7227 122.68C73.9987 122.617 74.276 122.568 74.5547 122.531C74.9193 122.484 75.2148 122.449 75.4414 122.426C75.6706 122.4 75.8372 122.357 75.9414 122.297C76.0482 122.237 76.1016 122.133 76.1016 121.984V121.953C76.1016 121.568 75.9961 121.268 75.7852 121.055C75.5768 120.841 75.2604 120.734 74.8359 120.734C74.3958 120.734 74.0508 120.831 73.8008 121.023C73.5508 121.216 73.375 121.422 73.2734 121.641L72.3984 121.328C72.5547 120.964 72.763 120.68 73.0234 120.477C73.2865 120.271 73.5729 120.128 73.8828 120.047C74.1953 119.964 74.5026 119.922 74.8047 119.922C74.9974 119.922 75.2188 119.945 75.4688 119.992C75.7214 120.036 75.9648 120.129 76.1992 120.27C76.4362 120.41 76.6328 120.622 76.7891 120.906C76.9453 121.19 77.0234 121.57 77.0234 122.047V126H76.1016V125.187H76.0547C75.9922 125.318 75.888 125.457 75.7422 125.605C75.5964 125.754 75.4023 125.88 75.1602 125.984C74.918 126.089 74.6224 126.141 74.2734 126.141ZM74.4141 125.312C74.7786 125.312 75.0859 125.241 75.3359 125.098C75.5885 124.954 75.7786 124.77 75.9062 124.543C76.0365 124.316 76.1016 124.078 76.1016 123.828V122.984C76.0625 123.031 75.9766 123.074 75.8438 123.113C75.7135 123.15 75.5625 123.182 75.3906 123.211C75.2214 123.237 75.056 123.26 74.8945 123.281C74.7357 123.299 74.6068 123.315 74.5078 123.328C74.2682 123.359 74.0443 123.41 73.8359 123.48C73.6302 123.548 73.4635 123.651 73.3359 123.789C73.2109 123.924 73.1484 124.109 73.1484 124.344C73.1484 124.664 73.2669 124.906 73.5039 125.07C73.7435 125.232 74.0469 125.312 74.4141 125.312ZM79.6279 122.391V126H78.7061V120H79.5967V120.937H79.6748C79.8154 120.633 80.029 120.388 80.3154 120.203C80.6019 120.016 80.9717 119.922 81.4248 119.922C81.8311 119.922 82.1865 120.005 82.4912 120.172C82.7959 120.336 83.0329 120.586 83.2021 120.922C83.3714 121.255 83.4561 121.677 83.4561 122.188V126H82.5342V122.25C82.5342 121.779 82.4118 121.411 82.167 121.148C81.9222 120.883 81.5863 120.75 81.1592 120.75C80.8649 120.75 80.6019 120.814 80.3701 120.941C80.141 121.069 79.96 121.255 79.8271 121.5C79.6943 121.745 79.6279 122.042 79.6279 122.391ZM88.3594 126V118H93.1563V118.859H89.3281V121.562H92.7969V122.422H89.3281V126H88.3594ZM94.626 126V120H95.5166V120.906H95.5791C95.6885 120.609 95.8864 120.368 96.1729 120.184C96.4593 119.999 96.7822 119.906 97.1416 119.906C97.2093 119.906 97.2939 119.908 97.3955 119.91C97.4971 119.913 97.5739 119.917 97.626 119.922V120.859C97.5947 120.852 97.5231 120.84 97.4111 120.824C97.3018 120.806 97.1859 120.797 97.0635 120.797C96.7718 120.797 96.5114 120.858 96.2822 120.98C96.0557 121.1 95.876 121.267 95.7432 121.48C95.613 121.691 95.5479 121.932 95.5479 122.203V126H94.626ZM100.484 126.141C100.104 126.141 99.7591 126.069 99.4492 125.926C99.1393 125.78 98.8932 125.57 98.7109 125.297C98.5286 125.021 98.4375 124.687 98.4375 124.297C98.4375 123.953 98.5052 123.674 98.6406 123.461C98.776 123.245 98.957 123.076 99.1836 122.953C99.4102 122.831 99.6602 122.74 99.9336 122.68C100.21 122.617 100.487 122.568 100.766 122.531C101.13 122.484 101.426 122.449 101.652 122.426C101.882 122.4 102.048 122.357 102.152 122.297C102.259 122.237 102.313 122.133 102.313 121.984V121.953C102.313 121.568 102.207 121.268 101.996 121.055C101.788 120.841 101.471 120.734 101.047 120.734C100.607 120.734 100.262 120.831 100.012 121.023C99.7617 121.216 99.5859 121.422 99.4844 121.641L98.6094 121.328C98.7656 120.964 98.974 120.68 99.2344 120.477C99.4974 120.271 99.7839 120.128 100.094 120.047C100.406 119.964 100.714 119.922 101.016 119.922C101.208 119.922 101.43 119.945 101.68 119.992C101.932 120.036 102.176 120.129 102.41 120.27C102.647 120.41 102.844 120.622 103 120.906C103.156 121.19 103.234 121.57 103.234 122.047V126H102.313V125.187H102.266C102.203 125.318 102.099 125.457 101.953 125.605C101.807 125.754 101.613 125.88 101.371 125.984C101.129 126.089 100.833 126.141 100.484 126.141ZM100.625 125.312C100.99 125.312 101.297 125.241 101.547 125.098C101.799 124.954 101.99 124.77 102.117 124.543C102.247 124.316 102.313 124.078 102.313 123.828V122.984C102.273 123.031 102.188 123.074 102.055 123.113C101.924 123.15 101.773 123.182 101.602 123.211C101.432 123.237 101.267 123.26 101.105 123.281C100.947 123.299 100.818 123.315 100.719 123.328C100.479 123.359 100.255 123.41 100.047 123.48C99.8411 123.548 99.6745 123.651 99.5469 123.789C99.4219 123.924 99.3594 124.109 99.3594 124.344C99.3594 124.664 99.4779 124.906 99.7148 125.07C99.9544 125.232 100.258 125.312 100.625 125.312ZM104.917 126V120H105.808V120.937H105.886C106.011 120.617 106.213 120.368 106.491 120.191C106.77 120.012 107.104 119.922 107.495 119.922C107.891 119.922 108.22 120.012 108.483 120.191C108.749 120.368 108.956 120.617 109.104 120.937H109.167C109.321 120.628 109.551 120.382 109.858 120.199C110.166 120.014 110.534 119.922 110.964 119.922C111.5 119.922 111.939 120.09 112.28 120.426C112.621 120.759 112.792 121.279 112.792 121.984V126H111.87V121.984C111.87 121.542 111.749 121.225 111.507 121.035C111.265 120.845 110.979 120.75 110.651 120.75C110.229 120.75 109.903 120.878 109.671 121.133C109.439 121.385 109.323 121.706 109.323 122.094V126H108.386V121.891C108.386 121.549 108.275 121.275 108.054 121.066C107.832 120.855 107.547 120.75 107.198 120.75C106.959 120.75 106.735 120.814 106.526 120.941C106.321 121.069 106.154 121.246 106.026 121.473C105.901 121.697 105.839 121.956 105.839 122.25V126H104.917ZM116.993 126.125C116.415 126.125 115.916 125.997 115.497 125.742C115.08 125.484 114.759 125.125 114.532 124.664C114.308 124.201 114.196 123.661 114.196 123.047C114.196 122.432 114.308 121.891 114.532 121.422C114.759 120.951 115.074 120.583 115.478 120.32C115.884 120.055 116.358 119.922 116.899 119.922C117.212 119.922 117.521 119.974 117.825 120.078C118.13 120.182 118.407 120.352 118.657 120.586C118.907 120.818 119.106 121.125 119.255 121.508C119.403 121.891 119.478 122.362 119.478 122.922V123.312H114.853V122.516H118.54C118.54 122.177 118.472 121.875 118.337 121.609C118.204 121.344 118.014 121.134 117.767 120.98C117.522 120.827 117.233 120.75 116.899 120.75C116.532 120.75 116.215 120.841 115.946 121.023C115.681 121.203 115.476 121.437 115.333 121.727C115.19 122.016 115.118 122.326 115.118 122.656V123.188C115.118 123.641 115.196 124.025 115.353 124.34C115.511 124.652 115.731 124.891 116.013 125.055C116.294 125.216 116.621 125.297 116.993 125.297C117.235 125.297 117.454 125.263 117.649 125.195C117.847 125.125 118.018 125.021 118.161 124.883C118.304 124.742 118.415 124.568 118.493 124.359L119.384 124.609C119.29 124.911 119.132 125.177 118.911 125.406C118.69 125.633 118.416 125.81 118.091 125.937C117.765 126.063 117.399 126.125 116.993 126.125ZM126.583 120V120.781H123.474V120H126.583ZM124.38 118.562H125.302V124.281C125.302 124.542 125.34 124.737 125.415 124.867C125.493 124.995 125.592 125.081 125.712 125.125C125.834 125.167 125.963 125.187 126.099 125.187C126.2 125.187 126.284 125.182 126.349 125.172C126.414 125.159 126.466 125.148 126.505 125.141L126.692 125.969C126.63 125.992 126.543 126.016 126.431 126.039C126.319 126.065 126.177 126.078 126.005 126.078C125.744 126.078 125.489 126.022 125.239 125.91C124.992 125.798 124.786 125.628 124.622 125.398C124.461 125.169 124.38 124.88 124.38 124.531V118.562ZM130.343 126.125C129.801 126.125 129.326 125.996 128.917 125.738C128.511 125.48 128.193 125.12 127.964 124.656C127.737 124.193 127.624 123.651 127.624 123.031C127.624 122.406 127.737 121.861 127.964 121.395C128.193 120.928 128.511 120.566 128.917 120.309C129.326 120.051 129.801 119.922 130.343 119.922C130.884 119.922 131.358 120.051 131.765 120.309C132.174 120.566 132.491 120.928 132.718 121.395C132.947 121.861 133.062 122.406 133.062 123.031C133.062 123.651 132.947 124.193 132.718 124.656C132.491 125.12 132.174 125.48 131.765 125.738C131.358 125.996 130.884 126.125 130.343 126.125ZM130.343 125.297C130.754 125.297 131.093 125.191 131.358 124.98C131.624 124.77 131.821 124.492 131.948 124.148C132.076 123.805 132.14 123.432 132.14 123.031C132.14 122.63 132.076 122.257 131.948 121.91C131.821 121.564 131.624 121.284 131.358 121.07C131.093 120.857 130.754 120.75 130.343 120.75C129.931 120.75 129.593 120.857 129.327 121.07C129.062 121.284 128.865 121.564 128.737 121.91C128.61 122.257 128.546 122.63 128.546 123.031C128.546 123.432 128.61 123.805 128.737 124.148C128.865 124.492 129.062 124.77 129.327 124.98C129.593 125.191 129.931 125.297 130.343 125.297ZM141.813 121.344L140.984 121.578C140.932 121.44 140.855 121.306 140.754 121.176C140.655 121.043 140.52 120.934 140.348 120.848C140.176 120.762 139.956 120.719 139.688 120.719C139.32 120.719 139.014 120.803 138.77 120.973C138.527 121.139 138.406 121.352 138.406 121.609C138.406 121.839 138.49 122.02 138.656 122.152C138.823 122.285 139.083 122.396 139.438 122.484L140.328 122.703C140.865 122.833 141.264 123.033 141.527 123.301C141.79 123.566 141.922 123.909 141.922 124.328C141.922 124.672 141.823 124.979 141.625 125.25C141.43 125.521 141.156 125.734 140.805 125.891C140.453 126.047 140.044 126.125 139.578 126.125C138.966 126.125 138.46 125.992 138.059 125.727C137.658 125.461 137.404 125.073 137.297 124.562L138.172 124.344C138.255 124.667 138.413 124.909 138.645 125.07C138.879 125.232 139.185 125.312 139.563 125.312C139.992 125.312 140.333 125.221 140.586 125.039C140.841 124.854 140.969 124.633 140.969 124.375C140.969 124.167 140.896 123.992 140.75 123.852C140.604 123.708 140.38 123.602 140.078 123.531L139.078 123.297C138.529 123.167 138.125 122.965 137.867 122.691C137.612 122.415 137.484 122.07 137.484 121.656C137.484 121.318 137.579 121.018 137.77 120.758C137.962 120.497 138.224 120.293 138.555 120.145C138.888 119.996 139.266 119.922 139.688 119.922C140.281 119.922 140.747 120.052 141.086 120.312C141.427 120.573 141.669 120.917 141.813 121.344ZM145.919 120V120.781H142.81V120H145.919ZM143.716 118.562H144.638V124.281C144.638 124.542 144.675 124.737 144.751 124.867C144.829 124.995 144.928 125.081 145.048 125.125C145.17 125.167 145.299 125.187 145.435 125.187C145.536 125.187 145.619 125.182 145.685 125.172C145.75 125.159 145.802 125.148 145.841 125.141L146.028 125.969C145.966 125.992 145.879 126.016 145.767 126.039C145.655 126.065 145.513 126.078 145.341 126.078C145.08 126.078 144.825 126.022 144.575 125.91C144.328 125.798 144.122 125.628 143.958 125.398C143.797 125.169 143.716 124.88 143.716 124.531V118.562ZM149.071 126.141C148.691 126.141 148.346 126.069 148.036 125.926C147.726 125.78 147.48 125.57 147.298 125.297C147.116 125.021 147.024 124.687 147.024 124.297C147.024 123.953 147.092 123.674 147.228 123.461C147.363 123.245 147.544 123.076 147.771 122.953C147.997 122.831 148.247 122.74 148.521 122.68C148.797 122.617 149.074 122.568 149.353 122.531C149.717 122.484 150.013 122.449 150.239 122.426C150.468 122.4 150.635 122.357 150.739 122.297C150.846 122.237 150.899 122.133 150.899 121.984V121.953C150.899 121.568 150.794 121.268 150.583 121.055C150.375 120.841 150.058 120.734 149.634 120.734C149.194 120.734 148.849 120.831 148.599 121.023C148.349 121.216 148.173 121.422 148.071 121.641L147.196 121.328C147.353 120.964 147.561 120.68 147.821 120.477C148.084 120.271 148.371 120.128 148.681 120.047C148.993 119.964 149.3 119.922 149.603 119.922C149.795 119.922 150.017 119.945 150.267 119.992C150.519 120.036 150.763 120.129 150.997 120.27C151.234 120.41 151.431 120.622 151.587 120.906C151.743 121.19 151.821 121.57 151.821 122.047V126H150.899V125.187H150.853C150.79 125.318 150.686 125.457 150.54 125.605C150.394 125.754 150.2 125.88 149.958 125.984C149.716 126.089 149.42 126.141 149.071 126.141ZM149.212 125.312C149.576 125.312 149.884 125.241 150.134 125.098C150.386 124.954 150.576 124.77 150.704 124.543C150.834 124.316 150.899 124.078 150.899 123.828V122.984C150.86 123.031 150.774 123.074 150.642 123.113C150.511 123.15 150.36 123.182 150.188 123.211C150.019 123.237 149.854 123.26 149.692 123.281C149.534 123.299 149.405 123.315 149.306 123.328C149.066 123.359 148.842 123.41 148.634 123.48C148.428 123.548 148.261 123.651 148.134 123.789C148.009 123.924 147.946 124.109 147.946 124.344C147.946 124.664 148.065 124.906 148.302 125.07C148.541 125.232 148.845 125.312 149.212 125.312ZM153.504 126V120H154.395V120.906H154.457C154.566 120.609 154.764 120.368 155.051 120.184C155.337 119.999 155.66 119.906 156.02 119.906C156.087 119.906 156.172 119.908 156.273 119.91C156.375 119.913 156.452 119.917 156.504 119.922V120.859C156.473 120.852 156.401 120.84 156.289 120.824C156.18 120.806 156.064 120.797 155.941 120.797C155.65 120.797 155.389 120.858 155.16 120.98C154.934 121.1 154.754 121.267 154.621 121.48C154.491 121.691 154.426 121.932 154.426 122.203V126H153.504ZM160.582 120V120.781H157.473V120H160.582ZM158.379 118.562H159.301V124.281C159.301 124.542 159.339 124.737 159.414 124.867C159.492 124.995 159.591 125.081 159.711 125.125C159.833 125.167 159.962 125.187 160.098 125.187C160.199 125.187 160.283 125.182 160.348 125.172C160.413 125.159 160.465 125.148 160.504 125.141L160.691 125.969C160.629 125.992 160.542 126.016 160.43 126.039C160.318 126.065 160.176 126.078 160.004 126.078C159.743 126.078 159.488 126.022 159.238 125.91C158.991 125.798 158.785 125.628 158.621 125.398C158.46 125.169 158.379 124.88 158.379 124.531V118.562Z" fill="#E2E2E2"/>
<path d="M245 75.9258L253 75.9258L253 76.8633L246.719 81.2227L246.719 81.3008L253 81.3008L253 82.2695L245 82.2695L245 81.332L251.297 76.957L251.297 76.8789L245 76.8789L245 75.9258ZM253.125 71.6748C253.125 72.2165 252.996 72.6917 252.738 73.1006C252.48 73.5068 252.12 73.8245 251.656 74.0537C251.193 74.2803 250.651 74.3936 250.031 74.3936C249.406 74.3936 248.861 74.2803 248.395 74.0537C247.928 73.8245 247.566 73.5068 247.309 73.1006C247.051 72.6917 246.922 72.2165 246.922 71.6748C246.922 71.1331 247.051 70.6592 247.309 70.2529C247.566 69.8441 247.928 69.5264 248.395 69.2998C248.861 69.0706 249.406 68.9561 250.031 68.9561C250.651 68.9561 251.193 69.0706 251.656 69.2998C252.12 69.5264 252.48 69.8441 252.738 70.2529C252.996 70.6592 253.125 71.1331 253.125 71.6748ZM252.297 71.6748C252.297 71.2633 252.191 70.9248 251.98 70.6592C251.77 70.3936 251.492 70.1969 251.148 70.0693C250.805 69.9417 250.432 69.8779 250.031 69.8779C249.63 69.8779 249.257 69.9417 248.91 70.0693C248.564 70.1969 248.284 70.3936 248.07 70.6592C247.857 70.9248 247.75 71.2633 247.75 71.6748C247.75 72.0863 247.857 72.4248 248.07 72.6904C248.284 72.9561 248.564 73.1527 248.91 73.2803C249.257 73.4079 249.63 73.4717 250.031 73.4717C250.432 73.4717 250.805 73.4079 251.148 73.2803C251.492 73.1527 251.77 72.9561 251.98 72.6904C252.191 72.4248 252.297 72.0863 252.297 71.6748ZM253 61.8613L253 64.3301L245 64.3301L245 61.752C245 60.9759 245.16 60.3118 245.48 59.7598C245.798 59.2077 246.255 58.7845 246.852 58.4902C247.445 58.196 248.156 58.0488 248.984 58.0488C249.818 58.0488 250.535 58.1973 251.137 58.4941C251.736 58.791 252.197 59.2233 252.52 59.791C252.84 60.3587 253 61.0488 253 61.8613ZM252.141 63.3613L252.141 61.9238C252.141 61.2624 252.013 60.7142 251.758 60.2793C251.503 59.8444 251.139 59.5202 250.668 59.3066C250.197 59.0931 249.635 58.9863 248.984 58.9863C248.339 58.9863 247.783 59.0918 247.316 59.3027C246.848 59.5137 246.488 59.8288 246.238 60.248C245.986 60.6673 245.859 61.1895 245.859 61.8145L245.859 63.3613L252.141 63.3613ZM253.141 54.7832C253.141 55.1634 253.069 55.5085 252.926 55.8184C252.78 56.1283 252.57 56.3743 252.297 56.5566C252.021 56.7389 251.688 56.8301 251.297 56.8301C250.953 56.8301 250.674 56.7624 250.461 56.627C250.245 56.4915 250.076 56.3105 249.953 56.084C249.831 55.8574 249.74 55.6074 249.68 55.334C249.617 55.0579 249.568 54.7806 249.531 54.502C249.484 54.1374 249.449 53.8418 249.426 53.6152C249.4 53.3861 249.357 53.2194 249.297 53.1152C249.237 53.0085 249.133 52.9551 248.984 52.9551L248.953 52.9551C248.568 52.9551 248.268 53.0605 248.055 53.2715C247.841 53.4798 247.734 53.7962 247.734 54.2207C247.734 54.6608 247.831 55.0059 248.023 55.2559C248.216 55.5059 248.422 55.6816 248.641 55.7832L248.328 56.6582C247.964 56.502 247.68 56.2936 247.477 56.0332C247.271 55.7702 247.128 55.4837 247.047 55.1738C246.964 54.8613 246.922 54.554 246.922 54.252C246.922 54.0592 246.945 53.8379 246.992 53.5879C247.036 53.3353 247.129 53.0918 247.27 52.8574C247.41 52.6204 247.622 52.4238 247.906 52.2676C248.19 52.1113 248.57 52.0332 249.047 52.0332L253 52.0332L253 52.9551L252.188 52.9551L252.188 53.002C252.318 53.0645 252.457 53.1686 252.605 53.3145C252.754 53.4603 252.88 53.6543 252.984 53.8965C253.089 54.1387 253.141 54.4342 253.141 54.7832ZM252.313 54.6426C252.313 54.278 252.241 53.9707 252.098 53.7207C251.954 53.4681 251.77 53.278 251.543 53.1504C251.316 53.0202 251.078 52.9551 250.828 52.9551L249.984 52.9551C250.031 52.9941 250.074 53.0801 250.113 53.2129C250.15 53.3431 250.182 53.4941 250.211 53.666C250.237 53.8353 250.26 54.0007 250.281 54.1621C250.299 54.321 250.315 54.4499 250.328 54.5488C250.359 54.7884 250.41 55.0124 250.48 55.2207C250.548 55.4264 250.651 55.5931 250.789 55.7207C250.924 55.8457 251.109 55.9082 251.344 55.9082C251.664 55.9082 251.906 55.7897 252.07 55.5527C252.232 55.3132 252.313 55.0098 252.313 54.6426ZM247 47.7412L247.781 47.7412L247.781 50.8506L247 50.8506L247 47.7412ZM245.563 49.9443L245.563 49.0225L251.281 49.0225C251.542 49.0225 251.737 48.9847 251.867 48.9092C251.995 48.8311 252.081 48.7321 252.125 48.6123C252.167 48.4899 252.188 48.361 252.188 48.2256C252.188 48.124 252.182 48.0407 252.172 47.9756C252.159 47.9105 252.148 47.8584 252.141 47.8193L252.969 47.6318C252.992 47.6943 253.016 47.7816 253.039 47.8936C253.065 48.0055 253.078 48.1475 253.078 48.3193C253.078 48.5798 253.022 48.835 252.91 49.085C252.798 49.3324 252.628 49.5381 252.398 49.7021C252.169 49.8636 251.88 49.9443 251.531 49.9443L245.563 49.9443ZM253.141 44.5889C253.141 44.9691 253.069 45.3141 252.926 45.624C252.78 45.9339 252.57 46.18 252.297 46.3623C252.021 46.5446 251.688 46.6357 251.297 46.6357C250.953 46.6357 250.674 46.568 250.461 46.4326C250.245 46.2972 250.076 46.1162 249.953 45.8896C249.831 45.6631 249.74 45.4131 249.68 45.1396C249.617 44.8636 249.568 44.5863 249.531 44.3076C249.484 43.943 249.449 43.6475 249.426 43.4209C249.4 43.1917 249.357 43.0251 249.297 42.9209C249.237 42.8141 249.133 42.7607 248.984 42.7607L248.953 42.7607C248.568 42.7607 248.268 42.8662 248.055 43.0771C247.841 43.2855 247.734 43.6019 247.734 44.0264C247.734 44.4665 247.831 44.8115 248.023 45.0615C248.216 45.3115 248.422 45.4873 248.641 45.5889L248.328 46.4639C247.964 46.3076 247.68 46.0993 247.477 45.8389C247.271 45.5758 247.128 45.2894 247.047 44.9795C246.964 44.667 246.922 44.3597 246.922 44.0576C246.922 43.8649 246.945 43.6436 246.992 43.3936C247.036 43.141 247.129 42.8975 247.27 42.6631C247.41 42.4261 247.622 42.2295 247.906 42.0732C248.19 41.917 248.57 41.8389 249.047 41.8389L253 41.8389L253 42.7607L252.188 42.7607L252.188 42.8076C252.318 42.8701 252.457 42.9743 252.605 43.1201C252.754 43.266 252.88 43.46 252.984 43.7021C253.089 43.9443 253.141 44.2399 253.141 44.5889ZM252.313 44.4482C252.313 44.0837 252.241 43.7764 252.098 43.5264C251.954 43.2738 251.77 43.0837 251.543 42.9561C251.316 42.8258 251.078 42.7607 250.828 42.7607L249.984 42.7607C250.031 42.7998 250.074 42.8857 250.113 43.0186C250.15 43.1488 250.182 43.2998 250.211 43.4717C250.237 43.641 250.26 43.8063 250.281 43.9678C250.299 44.1266 250.315 44.2555 250.328 44.3545C250.359 44.5941 250.41 44.818 250.48 45.0264C250.548 45.2321 250.651 45.3988 250.789 45.5264C250.924 45.6514 251.109 45.7139 251.344 45.7139C251.664 45.7139 251.906 45.5954 252.07 45.3584C252.232 45.1188 252.313 44.8154 252.313 44.4482Z" fill="#E2E2E2"/>
<path d="M26.7515 121.141V122H23.2515V121.141H26.7515Z" fill="white"/>
<path d="M36.9688 108V100H41.7656V100.859H37.9375V103.562H41.4063V104.422H37.9375V108H36.9688ZM43.2998 108V102H44.2217V108H43.2998ZM43.7686 101C43.5889 101 43.4339 100.939 43.3037 100.816C43.1761 100.694 43.1123 100.547 43.1123 100.375C43.1123 100.203 43.1761 100.056 43.3037 99.9336C43.4339 99.8112 43.5889 99.75 43.7686 99.75C43.9482 99.75 44.1019 99.8112 44.2295 99.9336C44.3597 100.056 44.4248 100.203 44.4248 100.375C44.4248 100.547 44.3597 100.694 44.2295 100.816C44.1019 100.939 43.9482 101 43.7686 101ZM48.332 110.375C47.8867 110.375 47.5039 110.318 47.1836 110.203C46.8633 110.091 46.5964 109.943 46.3828 109.758C46.1719 109.576 46.0039 109.38 45.8789 109.172L46.6133 108.656C46.6966 108.766 46.8021 108.891 46.9297 109.031C47.0573 109.174 47.2318 109.298 47.4531 109.402C47.6771 109.509 47.9701 109.562 48.332 109.562C48.8164 109.562 49.2161 109.445 49.5313 109.211C49.8464 108.977 50.0039 108.609 50.0039 108.109V106.891H49.9258C49.8581 107 49.7617 107.135 49.6367 107.297C49.5143 107.456 49.3372 107.598 49.1055 107.723C48.8763 107.845 48.5664 107.906 48.1758 107.906C47.6914 107.906 47.2565 107.792 46.8711 107.563C46.4883 107.333 46.1849 107 45.9609 106.562C45.7396 106.125 45.6289 105.594 45.6289 104.969C45.6289 104.354 45.737 103.819 45.9531 103.363C46.1693 102.905 46.4701 102.551 46.8555 102.301C47.2409 102.048 47.6862 101.922 48.1914 101.922C48.582 101.922 48.8919 101.987 49.1211 102.117C49.3529 102.245 49.5299 102.391 49.6523 102.555C49.7773 102.716 49.8737 102.849 49.9414 102.953H50.0352V102H50.9258V108.172C50.9258 108.688 50.8086 109.107 50.5742 109.43C50.3424 109.755 50.0299 109.993 49.6367 110.145C49.2461 110.298 48.8112 110.375 48.332 110.375ZM48.3008 107.078C48.6706 107.078 48.9831 106.993 49.2383 106.824C49.4935 106.655 49.6875 106.411 49.8203 106.094C49.9531 105.776 50.0195 105.396 50.0195 104.953C50.0195 104.521 49.9544 104.139 49.8242 103.809C49.694 103.478 49.5013 103.219 49.2461 103.031C48.9909 102.844 48.6758 102.75 48.3008 102.75C47.9102 102.75 47.5846 102.849 47.3242 103.047C47.0664 103.245 46.8724 103.51 46.7422 103.844C46.6146 104.177 46.5508 104.547 46.5508 104.953C46.5508 105.37 46.6159 105.738 46.7461 106.059C46.8789 106.376 47.0742 106.626 47.332 106.809C47.5924 106.988 47.9154 107.078 48.3008 107.078ZM52.6133 108V102H53.5039V102.937H53.582C53.707 102.617 53.9089 102.368 54.1875 102.191C54.4661 102.012 54.8008 101.922 55.1914 101.922C55.5872 101.922 55.9167 102.012 56.1797 102.191C56.4453 102.368 56.6523 102.617 56.8008 102.937H56.8633C57.0169 102.628 57.2474 102.382 57.5547 102.199C57.862 102.014 58.2305 101.922 58.6602 101.922C59.1966 101.922 59.6354 102.09 59.9766 102.426C60.3177 102.759 60.4883 103.279 60.4883 103.984V108H59.5664V103.984C59.5664 103.542 59.4453 103.225 59.2031 103.035C58.9609 102.845 58.6758 102.75 58.3477 102.75C57.9258 102.75 57.599 102.878 57.3672 103.133C57.1354 103.385 57.0195 103.706 57.0195 104.094V108H56.082V103.891C56.082 103.549 55.9714 103.275 55.75 103.066C55.5286 102.855 55.2435 102.75 54.8945 102.75C54.6549 102.75 54.431 102.814 54.2227 102.941C54.0169 103.069 53.8503 103.246 53.7227 103.473C53.5977 103.697 53.5352 103.956 53.5352 104.25V108H52.6133ZM63.9395 108.141C63.5592 108.141 63.2142 108.069 62.9043 107.926C62.5944 107.78 62.3483 107.57 62.166 107.297C61.9837 107.021 61.8926 106.687 61.8926 106.297C61.8926 105.953 61.9603 105.674 62.0957 105.461C62.2311 105.245 62.4121 105.076 62.6387 104.953C62.8652 104.831 63.1152 104.74 63.3887 104.68C63.6647 104.617 63.9421 104.568 64.2207 104.531C64.5853 104.484 64.8809 104.449 65.1074 104.426C65.3366 104.4 65.5033 104.357 65.6074 104.297C65.7142 104.237 65.7676 104.133 65.7676 103.984V103.953C65.7676 103.568 65.6621 103.268 65.4512 103.055C65.2428 102.841 64.9264 102.734 64.502 102.734C64.0618 102.734 63.7168 102.831 63.4668 103.023C63.2168 103.216 63.041 103.422 62.9395 103.641L62.0645 103.328C62.2207 102.964 62.429 102.68 62.6895 102.477C62.9525 102.271 63.2389 102.128 63.5488 102.047C63.8613 101.964 64.1686 101.922 64.4707 101.922C64.6634 101.922 64.8848 101.945 65.1348 101.992C65.3874 102.036 65.6309 102.129 65.8652 102.27C66.1022 102.41 66.2988 102.622 66.4551 102.906C66.6113 103.19 66.6895 103.57 66.6895 104.047V108H65.7676V107.187H65.7207C65.6582 107.318 65.554 107.457 65.4082 107.605C65.2624 107.754 65.0684 107.88 64.8262 107.984C64.584 108.089 64.2884 108.141 63.9395 108.141ZM64.0801 107.312C64.4447 107.312 64.752 107.241 65.002 107.098C65.2546 106.954 65.4447 106.77 65.5723 106.543C65.7025 106.316 65.7676 106.078 65.7676 105.828V104.984C65.7285 105.031 65.6426 105.074 65.5098 105.113C65.3796 105.15 65.2285 105.182 65.0566 105.211C64.8874 105.237 64.722 105.26 64.5605 105.281C64.4017 105.299 64.2728 105.315 64.1738 105.328C63.9342 105.359 63.7103 105.41 63.502 105.48C63.2962 105.548 63.1296 105.651 63.002 105.789C62.877 105.924 62.8145 106.109 62.8145 106.344C62.8145 106.664 62.9329 106.906 63.1699 107.07C63.4095 107.232 63.7129 107.312 64.0801 107.312ZM75.9658 102C75.9189 101.604 75.7288 101.297 75.3955 101.078C75.0622 100.859 74.6533 100.75 74.1689 100.75C73.8148 100.75 73.5049 100.807 73.2393 100.922C72.9762 101.036 72.7705 101.194 72.6221 101.395C72.4762 101.595 72.4033 101.823 72.4033 102.078C72.4033 102.292 72.4541 102.475 72.5557 102.629C72.6598 102.78 72.7926 102.906 72.9541 103.008C73.1156 103.107 73.2848 103.189 73.4619 103.254C73.639 103.316 73.8018 103.367 73.9502 103.406L74.7627 103.625C74.971 103.68 75.2028 103.755 75.458 103.852C75.7158 103.948 75.9619 104.079 76.1963 104.246C76.4333 104.41 76.6286 104.621 76.7822 104.879C76.9359 105.137 77.0127 105.453 77.0127 105.828C77.0127 106.26 76.8994 106.651 76.6729 107C76.4489 107.349 76.1208 107.626 75.6885 107.832C75.2588 108.038 74.7367 108.141 74.1221 108.141C73.5492 108.141 73.0531 108.048 72.6338 107.863C72.2171 107.678 71.889 107.421 71.6494 107.09C71.4124 106.759 71.2783 106.375 71.2471 105.938H72.2471C72.2731 106.24 72.3747 106.49 72.5518 106.687C72.7314 106.883 72.958 107.029 73.2314 107.125C73.5075 107.219 73.8044 107.266 74.1221 107.266C74.4919 107.266 74.8239 107.206 75.1182 107.086C75.4124 106.964 75.6455 106.794 75.8174 106.578C75.9893 106.359 76.0752 106.104 76.0752 105.812C76.0752 105.547 76.001 105.331 75.8525 105.164C75.7041 104.997 75.5088 104.862 75.2666 104.758C75.0244 104.654 74.7627 104.562 74.4814 104.484L73.4971 104.203C72.8721 104.023 72.3773 103.767 72.0127 103.434C71.6481 103.1 71.4658 102.664 71.4658 102.125C71.4658 101.677 71.5869 101.286 71.8291 100.953C72.0739 100.617 72.402 100.357 72.8135 100.172C73.2275 99.9844 73.6898 99.8906 74.2002 99.8906C74.7158 99.8906 75.1742 99.9831 75.5752 100.168C75.9762 100.35 76.2939 100.6 76.5283 100.918C76.7653 101.236 76.8903 101.596 76.9033 102H75.9658ZM80.9961 108.125C80.418 108.125 79.9193 107.997 79.5 107.742C79.0833 107.484 78.7617 107.125 78.5352 106.664C78.3112 106.201 78.1992 105.661 78.1992 105.047C78.1992 104.432 78.3112 103.891 78.5352 103.422C78.7617 102.951 79.0768 102.583 79.4805 102.32C79.8867 102.055 80.3607 101.922 80.9023 101.922C81.2148 101.922 81.5234 101.974 81.8281 102.078C82.1328 102.182 82.4102 102.352 82.6602 102.586C82.9102 102.818 83.1094 103.125 83.2578 103.508C83.4063 103.891 83.4805 104.362 83.4805 104.922V105.312H78.8555V104.516H82.543C82.543 104.177 82.4753 103.875 82.3398 103.609C82.207 103.344 82.0169 103.134 81.7695 102.98C81.5247 102.827 81.2357 102.75 80.9023 102.75C80.5352 102.75 80.2174 102.841 79.9492 103.023C79.6836 103.203 79.4792 103.437 79.3359 103.727C79.1927 104.016 79.1211 104.326 79.1211 104.656V105.188C79.1211 105.641 79.1992 106.025 79.3555 106.34C79.5143 106.652 79.7344 106.891 80.0156 107.055C80.2969 107.216 80.6237 107.297 80.9961 107.297C81.2383 107.297 81.457 107.263 81.6523 107.195C81.8503 107.125 82.0208 107.021 82.1641 106.883C82.3073 106.742 82.418 106.568 82.4961 106.359L83.3867 106.609C83.293 106.911 83.1354 107.177 82.9141 107.406C82.6927 107.633 82.4193 107.81 82.0937 107.937C81.7682 108.063 81.4023 108.125 80.9961 108.125ZM85.8047 100V108H84.8828V100H85.8047ZM90.0088 108.125C89.4307 108.125 88.932 107.997 88.5127 107.742C88.096 107.484 87.7744 107.125 87.5479 106.664C87.3239 106.201 87.2119 105.661 87.2119 105.047C87.2119 104.432 87.3239 103.891 87.5479 103.422C87.7744 102.951 88.0895 102.583 88.4932 102.32C88.8994 102.055 89.3734 101.922 89.915 101.922C90.2275 101.922 90.5361 101.974 90.8408 102.078C91.1455 102.182 91.4229 102.352 91.6729 102.586C91.9229 102.818 92.1221 103.125 92.2705 103.508C92.4189 103.891 92.4932 104.362 92.4932 104.922V105.312H87.8682V104.516H91.5557C91.5557 104.177 91.488 103.875 91.3525 103.609C91.2197 103.344 91.0296 103.134 90.7822 102.98C90.5374 102.827 90.2484 102.75 89.915 102.75C89.5479 102.75 89.2301 102.841 88.9619 103.023C88.6963 103.203 88.4919 103.437 88.3486 103.727C88.2054 104.016 88.1338 104.326 88.1338 104.656V105.188C88.1338 105.641 88.2119 106.025 88.3682 106.34C88.527 106.652 88.7471 106.891 89.0283 107.055C89.3096 107.216 89.6364 107.297 90.0088 107.297C90.251 107.297 90.4697 107.263 90.665 107.195C90.863 107.125 91.0335 107.021 91.1768 106.883C91.32 106.742 91.4307 106.568 91.5088 106.359L92.3994 106.609C92.3057 106.911 92.1481 107.177 91.9268 107.406C91.7054 107.633 91.432 107.81 91.1064 107.937C90.7809 108.063 90.415 108.125 90.0088 108.125ZM96.333 108.125C95.7705 108.125 95.2861 107.992 94.8799 107.727C94.4736 107.461 94.1611 107.095 93.9424 106.629C93.7236 106.163 93.6143 105.63 93.6143 105.031C93.6143 104.422 93.7262 103.884 93.9502 103.418C94.1768 102.949 94.4919 102.583 94.8955 102.32C95.3018 102.055 95.7757 101.922 96.3174 101.922C96.7393 101.922 97.1195 102 97.458 102.156C97.7965 102.312 98.0739 102.531 98.29 102.812C98.5062 103.094 98.6403 103.422 98.6924 103.797H97.7705C97.7002 103.523 97.5439 103.281 97.3018 103.07C97.0622 102.857 96.7393 102.75 96.333 102.75C95.9736 102.75 95.6585 102.844 95.3877 103.031C95.1195 103.216 94.9098 103.478 94.7588 103.816C94.6104 104.152 94.5361 104.547 94.5361 105C94.5361 105.464 94.609 105.867 94.7549 106.211C94.9033 106.555 95.1117 106.822 95.3799 107.012C95.6507 107.202 95.9684 107.297 96.333 107.297C96.5726 107.297 96.79 107.255 96.9854 107.172C97.1807 107.089 97.346 106.969 97.4814 106.812C97.6169 106.656 97.7132 106.469 97.7705 106.25H98.6924C98.6403 106.604 98.5114 106.923 98.3057 107.207C98.1025 107.488 97.833 107.712 97.4971 107.879C97.1637 108.043 96.7757 108.125 96.333 108.125ZM102.649 102V102.781H99.54V102H102.649ZM100.446 100.562H101.368V106.281C101.368 106.542 101.406 106.737 101.481 106.867C101.56 106.995 101.659 107.081 101.778 107.125C101.901 107.167 102.03 107.187 102.165 107.187C102.267 107.187 102.35 107.182 102.415 107.172C102.48 107.159 102.532 107.148 102.571 107.141L102.759 107.969C102.696 107.992 102.609 108.016 102.497 108.039C102.385 108.065 102.243 108.078 102.071 108.078C101.811 108.078 101.556 108.022 101.306 107.91C101.058 107.798 100.853 107.628 100.688 107.398C100.527 107.169 100.446 106.88 100.446 106.531V100.562ZM104.036 108V102H104.958V108H104.036ZM104.505 101C104.325 101 104.17 100.939 104.04 100.816C103.912 100.694 103.849 100.547 103.849 100.375C103.849 100.203 103.912 100.056 104.04 99.9336C104.17 99.8112 104.325 99.75 104.505 99.75C104.685 99.75 104.838 99.8112 104.966 99.9336C105.096 100.056 105.161 100.203 105.161 100.375C105.161 100.547 105.096 100.694 104.966 100.816C104.838 100.939 104.685 101 104.505 101ZM109.084 108.125C108.542 108.125 108.067 107.996 107.658 107.738C107.252 107.48 106.934 107.12 106.705 106.656C106.479 106.193 106.365 105.651 106.365 105.031C106.365 104.406 106.479 103.861 106.705 103.395C106.934 102.928 107.252 102.566 107.658 102.309C108.067 102.051 108.542 101.922 109.084 101.922C109.626 101.922 110.1 102.051 110.506 102.309C110.915 102.566 111.232 102.928 111.459 103.395C111.688 103.861 111.803 104.406 111.803 105.031C111.803 105.651 111.688 106.193 111.459 106.656C111.232 107.12 110.915 107.48 110.506 107.738C110.1 107.996 109.626 108.125 109.084 108.125ZM109.084 107.297C109.495 107.297 109.834 107.191 110.1 106.98C110.365 106.77 110.562 106.492 110.689 106.148C110.817 105.805 110.881 105.432 110.881 105.031C110.881 104.63 110.817 104.257 110.689 103.91C110.562 103.564 110.365 103.284 110.1 103.07C109.834 102.857 109.495 102.75 109.084 102.75C108.673 102.75 108.334 102.857 108.068 103.07C107.803 103.284 107.606 103.564 107.479 103.91C107.351 104.257 107.287 104.63 107.287 105.031C107.287 105.432 107.351 105.805 107.479 106.148C107.606 106.492 107.803 106.77 108.068 106.98C108.334 107.191 108.673 107.297 109.084 107.297ZM114.132 104.391V108H113.21V102H114.101V102.937H114.179C114.319 102.633 114.533 102.388 114.819 102.203C115.106 102.016 115.476 101.922 115.929 101.922C116.335 101.922 116.69 102.005 116.995 102.172C117.3 102.336 117.537 102.586 117.706 102.922C117.875 103.255 117.96 103.677 117.96 104.188V108H117.038V104.25C117.038 103.779 116.916 103.411 116.671 103.148C116.426 102.883 116.09 102.75 115.663 102.75C115.369 102.75 115.106 102.814 114.874 102.941C114.645 103.069 114.464 103.255 114.331 103.5C114.198 103.745 114.132 104.042 114.132 104.391Z" fill="#E2E2E2"/>
<path d="M235 103.562L235 106.031L227 106.031L227 103.453C227 102.677 227.16 102.013 227.48 101.461C227.798 100.909 228.255 100.486 228.852 100.191C229.445 99.8971 230.156 99.75 230.984 99.75C231.818 99.75 232.535 99.8984 233.137 100.195C233.736 100.492 234.197 100.924 234.52 101.492C234.84 102.06 235 102.75 235 103.562ZM234.141 105.062L234.141 103.625C234.141 102.964 234.013 102.415 233.758 101.98C233.503 101.546 233.139 101.221 232.668 101.008C232.197 100.794 231.635 100.687 230.984 100.687C230.339 100.687 229.783 100.793 229.316 101.004C228.848 101.215 228.488 101.53 228.238 101.949C227.986 102.368 227.859 102.891 227.859 103.516L227.859 105.062L234.141 105.062ZM235.141 96.4844C235.141 96.8646 235.069 97.2096 234.926 97.5195C234.78 97.8294 234.57 98.0755 234.297 98.2578C234.021 98.4401 233.687 98.5312 233.297 98.5312C232.953 98.5312 232.674 98.4635 232.461 98.3281C232.245 98.1927 232.076 98.0117 231.953 97.7852C231.831 97.5586 231.74 97.3086 231.68 97.0352C231.617 96.7591 231.568 96.4818 231.531 96.2031C231.484 95.8385 231.449 95.543 231.426 95.3164C231.4 95.0872 231.357 94.9206 231.297 94.8164C231.237 94.7096 231.133 94.6562 230.984 94.6562L230.953 94.6562C230.568 94.6562 230.268 94.7617 230.055 94.9727C229.841 95.181 229.734 95.4974 229.734 95.9219C229.734 96.362 229.831 96.707 230.023 96.957C230.216 97.207 230.422 97.3828 230.641 97.4844L230.328 98.3594C229.964 98.2031 229.68 97.9948 229.477 97.7344C229.271 97.4714 229.128 97.1849 229.047 96.875C228.964 96.5625 228.922 96.2552 228.922 95.9531C228.922 95.7604 228.945 95.5391 228.992 95.2891C229.036 95.0365 229.129 94.793 229.27 94.5586C229.41 94.3216 229.622 94.125 229.906 93.9687C230.19 93.8125 230.57 93.7344 231.047 93.7344L235 93.7344L235 94.6562L234.187 94.6562L234.187 94.7031C234.318 94.7656 234.457 94.8698 234.605 95.0156C234.754 95.1615 234.88 95.3555 234.984 95.5977C235.089 95.8398 235.141 96.1354 235.141 96.4844ZM234.312 96.3437C234.312 95.9792 234.241 95.6719 234.098 95.4219C233.954 95.1693 233.77 94.9792 233.543 94.8516C233.316 94.7214 233.078 94.6562 232.828 94.6562L231.984 94.6562C232.031 94.6953 232.074 94.7812 232.113 94.9141C232.15 95.0443 232.182 95.1953 232.211 95.3672C232.237 95.5365 232.26 95.7018 232.281 95.8633C232.299 96.0221 232.315 96.151 232.328 96.25C232.359 96.4896 232.41 96.7135 232.48 96.9219C232.548 97.1276 232.651 97.2943 232.789 97.4219C232.924 97.5469 233.109 97.6094 233.344 97.6094C233.664 97.6094 233.906 97.4909 234.07 97.2539C234.232 97.0143 234.312 96.7109 234.312 96.3437ZM229 89.4424L229.781 89.4424L229.781 92.5518L229 92.5518L229 89.4424ZM227.562 91.6455L227.562 90.7236L233.281 90.7236C233.542 90.7236 233.737 90.6859 233.867 90.6104C233.995 90.5322 234.081 90.4333 234.125 90.3135C234.167 90.1911 234.187 90.0622 234.187 89.9268C234.187 89.8252 234.182 89.7419 234.172 89.6768C234.159 89.6117 234.148 89.5596 234.141 89.5205L234.969 89.333C234.992 89.3955 235.016 89.4827 235.039 89.5947C235.065 89.7067 235.078 89.8486 235.078 90.0205C235.078 90.2809 235.022 90.5361 234.91 90.7861C234.798 91.0335 234.628 91.2393 234.398 91.4033C234.169 91.5648 233.88 91.6455 233.531 91.6455L227.562 91.6455ZM235.141 86.29C235.141 86.6702 235.069 87.0153 234.926 87.3252C234.78 87.6351 234.57 87.8812 234.297 88.0635C234.021 88.2458 233.687 88.3369 233.297 88.3369C232.953 88.3369 232.674 88.2692 232.461 88.1338C232.245 87.9984 232.076 87.8174 231.953 87.5908C231.831 87.3643 231.74 87.1143 231.68 86.8408C231.617 86.5648 231.568 86.2874 231.531 86.0088C231.484 85.6442 231.449 85.3486 231.426 85.1221C231.4 84.8929 231.357 84.7262 231.297 84.6221C231.237 84.5153 231.133 84.4619 230.984 84.4619L230.953 84.4619C230.568 84.4619 230.268 84.5674 230.055 84.7783C229.841 84.9867 229.734 85.3031 229.734 85.7275C229.734 86.1676 229.831 86.5127 230.023 86.7627C230.216 87.0127 230.422 87.1885 230.641 87.29L230.328 88.165C229.964 88.0088 229.68 87.8005 229.477 87.54C229.271 87.277 229.128 86.9906 229.047 86.6807C228.964 86.3682 228.922 86.0609 228.922 85.7588C228.922 85.5661 228.945 85.3447 228.992 85.0947C229.036 84.8421 229.129 84.5986 229.27 84.3643C229.41 84.1273 229.622 83.9307 229.906 83.7744C230.19 83.6182 230.57 83.54 231.047 83.54L235 83.54L235 84.4619L234.187 84.4619L234.187 84.5088C234.318 84.5713 234.457 84.6755 234.605 84.8213C234.754 84.9671 234.88 85.1611 234.984 85.4033C235.089 85.6455 235.141 85.9411 235.141 86.29ZM234.312 86.1494C234.312 85.7848 234.241 85.4775 234.098 85.2275C233.954 84.9749 233.77 84.7848 233.543 84.6572C233.316 84.527 233.078 84.4619 232.828 84.4619L231.984 84.4619C232.031 84.501 232.074 84.5869 232.113 84.7197C232.15 84.8499 232.182 85.001 232.211 85.1729C232.237 85.3421 232.26 85.5075 232.281 85.6689C232.299 85.8278 232.315 85.9567 232.328 86.0557C232.359 86.2952 232.41 86.5192 232.48 86.7275C232.548 86.9333 232.651 87.0999 232.789 87.2275C232.924 87.3525 233.109 87.415 233.344 87.415C233.664 87.415 233.906 87.2965 234.07 87.0596C234.232 86.82 234.312 86.5166 234.312 86.1494ZM235 78.7637L229 78.7637L229 77.8418L235 77.8418L235 78.7637ZM228 78.2949C228 78.4746 227.939 78.6296 227.816 78.7598C227.694 78.8874 227.547 78.9512 227.375 78.9512C227.203 78.9512 227.056 78.8874 226.934 78.7598C226.811 78.6296 226.75 78.4746 226.75 78.2949C226.75 78.1152 226.811 77.9616 226.934 77.834C227.056 77.7038 227.203 77.6387 227.375 77.6387C227.547 77.6387 227.694 77.7038 227.816 77.834C227.939 77.9616 228 78.1152 228 78.2949ZM231.391 75.2314L235 75.2314L235 76.1533L229 76.1533L229 75.2627L229.937 75.2627L229.937 75.1846C229.633 75.0439 229.388 74.8304 229.203 74.5439C229.016 74.2575 228.922 73.8877 228.922 73.4346C228.922 73.0283 229.005 72.6729 229.172 72.3682C229.336 72.0635 229.586 71.8265 229.922 71.6572C230.255 71.488 230.677 71.4033 231.187 71.4033L235 71.4033L235 72.3252L231.25 72.3252C230.779 72.3252 230.411 72.4476 230.148 72.6924C229.883 72.9372 229.75 73.2731 229.75 73.7002C229.75 73.9945 229.814 74.2575 229.941 74.4893C230.069 74.7184 230.255 74.8994 230.5 75.0322C230.745 75.165 231.042 75.2314 231.391 75.2314ZM237.25 69.7187L229 69.7187L229 68.8281L229.953 68.8281L229.953 68.7187C229.849 68.651 229.716 68.5573 229.555 68.4375C229.391 68.3151 229.245 68.1406 229.117 67.9141C228.987 67.6849 228.922 67.375 228.922 66.9844C228.922 66.4792 229.048 66.0339 229.301 65.6484C229.553 65.263 229.911 64.9622 230.375 64.7461C230.839 64.5299 231.385 64.4219 232.016 64.4219C232.651 64.4219 233.202 64.5299 233.668 64.7461C234.132 64.9622 234.491 65.2617 234.746 65.6445C234.999 66.0273 235.125 66.4687 235.125 66.9687C235.125 67.3542 235.061 67.6628 234.934 67.8945C234.803 68.1263 234.656 68.3047 234.492 68.4297C234.326 68.5547 234.187 68.651 234.078 68.7187L234.078 68.7969L237.25 68.7969L237.25 69.7187ZM232 68.8125C232.453 68.8125 232.853 68.7461 233.199 68.6133C233.543 68.4805 233.812 68.2865 234.008 68.0312C234.201 67.776 234.297 67.4635 234.297 67.0937C234.297 66.7083 234.195 66.3867 233.992 66.1289C233.786 65.8685 233.51 65.6732 233.164 65.543C232.815 65.4102 232.427 65.3437 232 65.3437C231.578 65.3437 231.198 65.4089 230.859 65.5391C230.518 65.6667 230.249 65.8607 230.051 66.1211C229.85 66.3789 229.75 66.7031 229.75 67.0937C229.75 67.4687 229.845 67.7839 230.035 68.0391C230.223 68.2943 230.486 68.487 230.824 68.6172C231.16 68.7474 231.552 68.8125 232 68.8125ZM232.547 59.2344L229 59.2344L229 58.3125L235 58.3125L235 59.2344L233.984 59.2344L233.984 59.2969C234.289 59.4375 234.548 59.6562 234.762 59.9531C234.973 60.25 235.078 60.625 235.078 61.0781C235.078 61.4531 234.996 61.7865 234.832 62.0781C234.665 62.3698 234.415 62.599 234.082 62.7656C233.746 62.9323 233.323 63.0156 232.812 63.0156L229 63.0156L229 62.0937L232.75 62.0937C233.187 62.0937 233.536 61.9714 233.797 61.7266C234.057 61.4792 234.187 61.1641 234.187 60.7812C234.187 60.5521 234.129 60.319 234.012 60.082C233.895 59.8424 233.715 59.6419 233.473 59.4805C233.23 59.3164 232.922 59.2344 232.547 59.2344ZM229 54.0146L229.781 54.0146L229.781 57.124L229 57.124L229 54.0146ZM227.562 56.2178L227.562 55.2959L233.281 55.2959C233.542 55.2959 233.737 55.2581 233.867 55.1826C233.995 55.1045 234.081 55.0055 234.125 54.8857C234.167 54.7633 234.187 54.6344 234.187 54.499C234.187 54.3975 234.182 54.3141 234.172 54.249C234.159 54.1839 234.148 54.1318 234.141 54.0928L234.969 53.9053C234.992 53.9678 235.016 54.055 235.039 54.167C235.065 54.279 235.078 54.4209 235.078 54.5928C235.078 54.8532 235.022 55.1084 234.91 55.3584C234.798 55.6058 234.628 55.8115 234.398 55.9756C234.169 56.137 233.88 56.2178 233.531 56.2178L227.562 56.2178Z" fill="#E2E2E2"/>
<rect x="18.5" y="22" width="13" height="13" rx="2.5" stroke="white"/>
<path d="M25.6665 32.5L25.0649 31.9062L27.5415 29.4297L21.1274 29.4297L21.1274 28.5703L27.5415 28.5703L25.0649 26.1016L25.6665 25.5L29.1665 29L25.6665 32.5Z" fill="white"/>
<path d="M42.2188 24H43.1875V29.2969C43.1875 29.8437 43.0586 30.332 42.8008 30.7617C42.5456 31.1888 42.1849 31.526 41.7188 31.7734C41.2526 32.0182 40.7057 32.1406 40.0781 32.1406C39.4505 32.1406 38.9036 32.0182 38.4375 31.7734C37.9714 31.526 37.6094 31.1888 37.3516 30.7617C37.0964 30.332 36.9688 29.8437 36.9688 29.2969V24H37.9375V29.2188C37.9375 29.6094 38.0234 29.957 38.1953 30.2617C38.3672 30.5638 38.612 30.8021 38.9297 30.9766C39.25 31.1484 39.6328 31.2344 40.0781 31.2344C40.5234 31.2344 40.9063 31.1484 41.2266 30.9766C41.5469 30.8021 41.7917 30.5638 41.9609 30.2617C42.1328 29.957 42.2188 29.6094 42.2188 29.2188V24ZM44.9971 34.25V26H45.8877V26.9531H45.9971C46.0648 26.849 46.1585 26.7161 46.2783 26.5547C46.4007 26.3906 46.5752 26.2448 46.8018 26.1172C47.0309 25.987 47.3408 25.9219 47.7314 25.9219C48.2367 25.9219 48.682 26.0482 49.0674 26.3008C49.4528 26.5534 49.7536 26.9115 49.9697 27.375C50.1859 27.8385 50.2939 28.3854 50.2939 29.0156C50.2939 29.651 50.1859 30.2018 49.9697 30.668C49.7536 31.1315 49.4541 31.4909 49.0713 31.7461C48.6885 31.9987 48.2471 32.125 47.7471 32.125C47.3617 32.125 47.0531 32.0612 46.8213 31.9336C46.5895 31.8034 46.4111 31.6562 46.2861 31.4922C46.1611 31.3255 46.0648 31.1875 45.9971 31.0781H45.9189V34.25H44.9971ZM45.9033 29C45.9033 29.4531 45.9697 29.8529 46.1025 30.1992C46.2354 30.543 46.4294 30.8125 46.6846 31.0078C46.9398 31.2005 47.2523 31.2969 47.6221 31.2969C48.0075 31.2969 48.3291 31.1953 48.5869 30.9922C48.8473 30.7865 49.0426 30.5104 49.1729 30.1641C49.3057 29.8151 49.3721 29.4271 49.3721 29C49.3721 28.5781 49.307 28.1979 49.1768 27.8594C49.0492 27.5182 48.8551 27.2487 48.5947 27.0508C48.3369 26.8503 48.0127 26.75 47.6221 26.75C47.2471 26.75 46.932 26.8451 46.6768 27.0352C46.4215 27.2227 46.2288 27.4857 46.0986 27.8242C45.9684 28.1602 45.9033 28.5521 45.9033 29ZM53.9658 32.125C53.4658 32.125 53.0244 31.9987 52.6416 31.7461C52.2588 31.4909 51.9593 31.1315 51.7432 30.668C51.527 30.2018 51.4189 29.651 51.4189 29.0156C51.4189 28.3854 51.527 27.8385 51.7432 27.375C51.9593 26.9115 52.2601 26.5534 52.6455 26.3008C53.0309 26.0482 53.4762 25.9219 53.9814 25.9219C54.3721 25.9219 54.6807 25.987 54.9072 26.1172C55.1364 26.2448 55.3109 26.3906 55.4307 26.5547C55.5531 26.7161 55.6481 26.849 55.7158 26.9531H55.7939V24H56.7158V32H55.8252V31.0781H55.7158C55.6481 31.1875 55.5518 31.3255 55.4268 31.4922C55.3018 31.6562 55.1234 31.8034 54.8916 31.9336C54.6598 32.0612 54.3512 32.125 53.9658 32.125ZM54.0908 31.2969C54.4606 31.2969 54.7731 31.2005 55.0283 31.0078C55.2835 30.8125 55.4775 30.543 55.6104 30.1992C55.7432 29.8529 55.8096 29.4531 55.8096 29C55.8096 28.5521 55.7445 28.1602 55.6143 27.8242C55.484 27.4857 55.2913 27.2227 55.0361 27.0352C54.7809 26.8451 54.4658 26.75 54.0908 26.75C53.7002 26.75 53.3747 26.8503 53.1143 27.0508C52.8564 27.2487 52.6624 27.5182 52.5322 27.8594C52.4046 28.1979 52.3408 28.5781 52.3408 29C52.3408 29.4271 52.4059 29.8151 52.5361 30.1641C52.6689 30.5104 52.8643 30.7865 53.1221 30.9922C53.3825 31.1953 53.7054 31.2969 54.0908 31.2969ZM60.2979 32.1406C59.9176 32.1406 59.5726 32.069 59.2627 31.9258C58.9528 31.7799 58.7067 31.5703 58.5244 31.2969C58.3421 31.0208 58.251 30.6875 58.251 30.2969C58.251 29.9531 58.3187 29.6745 58.4541 29.4609C58.5895 29.2448 58.7705 29.0755 58.9971 28.9531C59.2236 28.8307 59.4736 28.7396 59.7471 28.6797C60.0231 28.6172 60.3005 28.5677 60.5791 28.5313C60.9437 28.4844 61.2393 28.4492 61.4658 28.4258C61.695 28.3997 61.8617 28.3568 61.9658 28.2969C62.0726 28.237 62.126 28.1328 62.126 27.9844V27.9531C62.126 27.5677 62.0205 27.2682 61.8096 27.0547C61.6012 26.8411 61.2848 26.7344 60.8604 26.7344C60.4202 26.7344 60.0752 26.8307 59.8252 27.0234C59.5752 27.2161 59.3994 27.4219 59.2979 27.6406L58.4229 27.3281C58.5791 26.9635 58.7874 26.6797 59.0479 26.4766C59.3109 26.2708 59.5973 26.1276 59.9072 26.0469C60.2197 25.9635 60.527 25.9219 60.8291 25.9219C61.0218 25.9219 61.2432 25.9453 61.4932 25.9922C61.7458 26.0365 61.9893 26.1289 62.2236 26.2695C62.4606 26.4102 62.6572 26.6224 62.8135 26.9062C62.9697 27.1901 63.0479 27.5703 63.0479 28.0469V32H62.126V31.1875H62.0791C62.0166 31.3177 61.9124 31.457 61.7666 31.6055C61.6208 31.7539 61.4268 31.8802 61.1846 31.9844C60.9424 32.0885 60.6468 32.1406 60.2979 32.1406ZM60.4385 31.3125C60.8031 31.3125 61.1104 31.2409 61.3604 31.0977C61.613 30.9544 61.8031 30.7695 61.9307 30.543C62.0609 30.3164 62.126 30.0781 62.126 29.8281V28.9844C62.0869 29.0312 62.001 29.0742 61.8682 29.1133C61.738 29.1497 61.5869 29.1823 61.415 29.2109C61.2458 29.237 61.0804 29.2604 60.9189 29.2812C60.7601 29.2995 60.6312 29.3151 60.5322 29.3281C60.2926 29.3594 60.0687 29.4102 59.8604 29.4805C59.6546 29.5482 59.488 29.651 59.3604 29.7891C59.2354 29.9245 59.1729 30.1094 59.1729 30.3437C59.1729 30.6641 59.2913 30.9062 59.5283 31.0703C59.7679 31.2318 60.0713 31.3125 60.4385 31.3125ZM67.3398 26V26.7812H64.2305V26H67.3398ZM65.1367 24.5625H66.0586V30.2812C66.0586 30.5417 66.0964 30.737 66.1719 30.8672C66.25 30.9948 66.349 31.0807 66.4688 31.125C66.5911 31.1667 66.7201 31.1875 66.8555 31.1875C66.957 31.1875 67.0404 31.1823 67.1055 31.1719C67.1706 31.1589 67.2227 31.1484 67.2617 31.1406L67.4492 31.9687C67.3867 31.9922 67.2995 32.0156 67.1875 32.0391C67.0755 32.0651 66.9336 32.0781 66.7617 32.0781C66.5013 32.0781 66.2461 32.0221 65.9961 31.9102C65.7487 31.7982 65.543 31.6276 65.3789 31.3984C65.2174 31.1693 65.1367 30.8802 65.1367 30.5312V24.5625ZM71.1777 32.125C70.5996 32.125 70.1009 31.9974 69.6816 31.7422C69.265 31.4844 68.9434 31.125 68.7168 30.6641C68.4928 30.2005 68.3809 29.6615 68.3809 29.0469C68.3809 28.4323 68.4928 27.8906 68.7168 27.4219C68.9434 26.9505 69.2585 26.5833 69.6621 26.3203C70.0684 26.0547 70.5423 25.9219 71.084 25.9219C71.3965 25.9219 71.7051 25.974 72.0098 26.0781C72.3145 26.1823 72.5918 26.3516 72.8418 26.5859C73.0918 26.8177 73.291 27.125 73.4395 27.5078C73.5879 27.8906 73.6621 28.362 73.6621 28.9219V29.3125H69.0371V28.5156H72.7246C72.7246 28.1771 72.6569 27.875 72.5215 27.6094C72.3887 27.3437 72.1986 27.1341 71.9512 26.9805C71.7064 26.8268 71.4173 26.75 71.084 26.75C70.7168 26.75 70.3991 26.8411 70.1309 27.0234C69.8652 27.2031 69.6608 27.4375 69.5176 27.7266C69.3743 28.0156 69.3027 28.3255 69.3027 28.6562V29.1875C69.3027 29.6406 69.3809 30.0247 69.5371 30.3398C69.696 30.6523 69.916 30.8906 70.1973 31.0547C70.4785 31.2161 70.8053 31.2969 71.1777 31.2969C71.4199 31.2969 71.6387 31.263 71.834 31.1953C72.0319 31.125 72.2025 31.0208 72.3457 30.8828C72.4889 30.7422 72.5996 30.5677 72.6777 30.3594L73.5684 30.6094C73.4746 30.9115 73.3171 31.1771 73.0957 31.4062C72.8743 31.6328 72.6009 31.8099 72.2754 31.9375C71.9499 32.0625 71.584 32.125 71.1777 32.125ZM80.4238 32.125C79.9238 32.125 79.4824 31.9987 79.0996 31.7461C78.7168 31.4909 78.4173 31.1315 78.2012 30.668C77.985 30.2018 77.877 29.651 77.877 29.0156C77.877 28.3854 77.985 27.8385 78.2012 27.375C78.4173 26.9115 78.7181 26.5534 79.1035 26.3008C79.4889 26.0482 79.9342 25.9219 80.4395 25.9219C80.8301 25.9219 81.1387 25.987 81.3652 26.1172C81.5944 26.2448 81.7689 26.3906 81.8887 26.5547C82.0111 26.7161 82.1061 26.849 82.1738 26.9531H82.252V24H83.1738V32H82.2832V31.0781H82.1738C82.1061 31.1875 82.0098 31.3255 81.8848 31.4922C81.7598 31.6562 81.5814 31.8034 81.3496 31.9336C81.1178 32.0612 80.8092 32.125 80.4238 32.125ZM80.5488 31.2969C80.9186 31.2969 81.2311 31.2005 81.4863 31.0078C81.7415 30.8125 81.9355 30.543 82.0684 30.1992C82.2012 29.8529 82.2676 29.4531 82.2676 29C82.2676 28.5521 82.2025 28.1602 82.0723 27.8242C81.9421 27.4857 81.7493 27.2227 81.4941 27.0352C81.2389 26.8451 80.9238 26.75 80.5488 26.75C80.1582 26.75 79.8327 26.8503 79.5723 27.0508C79.3145 27.2487 79.1204 27.5182 78.9902 27.8594C78.8626 28.1979 78.7988 28.5781 78.7988 29C78.7988 29.4271 78.8639 29.8151 78.9941 30.1641C79.127 30.5104 79.3223 30.7865 79.5801 30.9922C79.8405 31.1953 80.1634 31.2969 80.5488 31.2969ZM86.7559 32.1406C86.3757 32.1406 86.0306 32.069 85.7207 31.9258C85.4108 31.7799 85.1647 31.5703 84.9824 31.2969C84.8001 31.0208 84.709 30.6875 84.709 30.2969C84.709 29.9531 84.7767 29.6745 84.9121 29.4609C85.0475 29.2448 85.2285 29.0755 85.4551 28.9531C85.6816 28.8307 85.9316 28.7396 86.2051 28.6797C86.4811 28.6172 86.7585 28.5677 87.0371 28.5313C87.4017 28.4844 87.6973 28.4492 87.9238 28.4258C88.153 28.3997 88.3197 28.3568 88.4238 28.2969C88.5306 28.237 88.584 28.1328 88.584 27.9844V27.9531C88.584 27.5677 88.4785 27.2682 88.2676 27.0547C88.0592 26.8411 87.7428 26.7344 87.3184 26.7344C86.8783 26.7344 86.5332 26.8307 86.2832 27.0234C86.0332 27.2161 85.8574 27.4219 85.7559 27.6406L84.8809 27.3281C85.0371 26.9635 85.2454 26.6797 85.5059 26.4766C85.7689 26.2708 86.0553 26.1276 86.3652 26.0469C86.6777 25.9635 86.985 25.9219 87.2871 25.9219C87.4798 25.9219 87.7012 25.9453 87.9512 25.9922C88.2038 26.0365 88.4473 26.1289 88.6816 26.2695C88.9186 26.4102 89.1152 26.6224 89.2715 26.9062C89.4277 27.1901 89.5059 27.5703 89.5059 28.0469V32H88.584V31.1875H88.5371C88.4746 31.3177 88.3704 31.457 88.2246 31.6055C88.0788 31.7539 87.8848 31.8802 87.6426 31.9844C87.4004 32.0885 87.1048 32.1406 86.7559 32.1406ZM86.8965 31.3125C87.2611 31.3125 87.5684 31.2409 87.8184 31.0977C88.071 30.9544 88.2611 30.7695 88.3887 30.543C88.5189 30.3164 88.584 30.0781 88.584 29.8281V28.9844C88.5449 29.0312 88.459 29.0742 88.3262 29.1133C88.196 29.1497 88.0449 29.1823 87.873 29.2109C87.7038 29.237 87.5384 29.2604 87.377 29.2812C87.2181 29.2995 87.0892 29.3151 86.9902 29.3281C86.7507 29.3594 86.5267 29.4102 86.3184 29.4805C86.1126 29.5482 85.946 29.651 85.8184 29.7891C85.6934 29.9245 85.6309 30.1094 85.6309 30.3437C85.6309 30.6641 85.7493 30.9062 85.9863 31.0703C86.2259 31.2318 86.5293 31.3125 86.8965 31.3125ZM93.7979 26V26.7812H90.6885V26H93.7979ZM91.5947 24.5625H92.5166V30.2812C92.5166 30.5417 92.5544 30.737 92.6299 30.8672C92.708 30.9948 92.807 31.0807 92.9268 31.125C93.0492 31.1667 93.1781 31.1875 93.3135 31.1875C93.415 31.1875 93.4984 31.1823 93.5635 31.1719C93.6286 31.1589 93.6807 31.1484 93.7197 31.1406L93.9072 31.9687C93.8447 31.9922 93.7575 32.0156 93.6455 32.0391C93.5335 32.0651 93.3916 32.0781 93.2197 32.0781C92.9593 32.0781 92.7041 32.0221 92.4541 31.9102C92.2067 31.7982 92.001 31.6276 91.8369 31.3984C91.6755 31.1693 91.5947 30.8802 91.5947 30.5312V24.5625ZM96.9502 32.1406C96.57 32.1406 96.2249 32.069 95.915 31.9258C95.6051 31.7799 95.359 31.5703 95.1768 31.2969C94.9945 31.0208 94.9033 30.6875 94.9033 30.2969C94.9033 29.9531 94.971 29.6745 95.1064 29.4609C95.2419 29.2448 95.4229 29.0755 95.6494 28.9531C95.876 28.8307 96.126 28.7396 96.3994 28.6797C96.6755 28.6172 96.9528 28.5677 97.2314 28.5313C97.596 28.4844 97.8916 28.4492 98.1182 28.4258C98.3473 28.3997 98.514 28.3568 98.6182 28.2969C98.7249 28.237 98.7783 28.1328 98.7783 27.9844V27.9531C98.7783 27.5677 98.6729 27.2682 98.4619 27.0547C98.2536 26.8411 97.9372 26.7344 97.5127 26.7344C97.0726 26.7344 96.7275 26.8307 96.4775 27.0234C96.2275 27.2161 96.0518 27.4219 95.9502 27.6406L95.0752 27.3281C95.2314 26.9635 95.4398 26.6797 95.7002 26.4766C95.9632 26.2708 96.2497 26.1276 96.5596 26.0469C96.8721 25.9635 97.1794 25.9219 97.4814 25.9219C97.6742 25.9219 97.8955 25.9453 98.1455 25.9922C98.3981 26.0365 98.6416 26.1289 98.876 26.2695C99.113 26.4102 99.3096 26.6224 99.4658 26.9062C99.6221 27.1901 99.7002 27.5703 99.7002 28.0469V32H98.7783V31.1875H98.7314C98.6689 31.3177 98.5648 31.457 98.4189 31.6055C98.2731 31.7539 98.0791 31.8802 97.8369 31.9844C97.5947 32.0885 97.2992 32.1406 96.9502 32.1406ZM97.0908 31.3125C97.4554 31.3125 97.7627 31.2409 98.0127 31.0977C98.2653 30.9544 98.4554 30.7695 98.583 30.543C98.7132 30.3164 98.7783 30.0781 98.7783 29.8281V28.9844C98.7393 29.0312 98.6533 29.0742 98.5205 29.1133C98.3903 29.1497 98.2393 29.1823 98.0674 29.2109C97.8981 29.237 97.7327 29.2604 97.5713 29.2812C97.4124 29.2995 97.2835 29.3151 97.1846 29.3281C96.945 29.3594 96.721 29.4102 96.5127 29.4805C96.307 29.5482 96.1403 29.651 96.0127 29.7891C95.8877 29.9245 95.8252 30.1094 95.8252 30.3437C95.8252 30.6641 95.9437 30.9062 96.1807 31.0703C96.4202 31.2318 96.7236 31.3125 97.0908 31.3125ZM107.148 26V26.7812H103.914V26H107.148ZM104.883 32V25.1719C104.883 24.8281 104.964 24.5417 105.125 24.3125C105.286 24.0833 105.496 23.9115 105.754 23.7969C106.012 23.6823 106.284 23.625 106.57 23.625C106.797 23.625 106.982 23.6432 107.125 23.6797C107.268 23.7161 107.375 23.75 107.445 23.7812L107.18 24.5781C107.133 24.5625 107.068 24.543 106.984 24.5195C106.904 24.4961 106.797 24.4844 106.664 24.4844C106.359 24.4844 106.139 24.5612 106.004 24.7148C105.871 24.8685 105.805 25.0937 105.805 25.3906V32H104.883ZM108.44 32V26H109.331V26.9062H109.394C109.503 26.6094 109.701 26.3685 109.987 26.1836C110.274 25.9987 110.597 25.9062 110.956 25.9062C111.024 25.9062 111.108 25.9076 111.21 25.9102C111.312 25.9128 111.388 25.9167 111.44 25.9219V26.8594C111.409 26.8516 111.338 26.8398 111.226 26.8242C111.116 26.806 111 26.7969 110.878 26.7969C110.586 26.7969 110.326 26.8581 110.097 26.9805C109.87 27.1003 109.69 27.2669 109.558 27.4805C109.427 27.6914 109.362 27.9323 109.362 28.2031V32H108.44ZM114.788 32.125C114.246 32.125 113.771 31.9961 113.362 31.7383C112.956 31.4805 112.638 31.1198 112.409 30.6562C112.183 30.1927 112.069 29.651 112.069 29.0312C112.069 28.4062 112.183 27.8607 112.409 27.3945C112.638 26.9284 112.956 26.5664 113.362 26.3086C113.771 26.0508 114.246 25.9219 114.788 25.9219C115.33 25.9219 115.804 26.0508 116.21 26.3086C116.619 26.5664 116.937 26.9284 117.163 27.3945C117.392 27.8607 117.507 28.4062 117.507 29.0312C117.507 29.651 117.392 30.1927 117.163 30.6562C116.937 31.1198 116.619 31.4805 116.21 31.7383C115.804 31.9961 115.33 32.125 114.788 32.125ZM114.788 31.2969C115.2 31.2969 115.538 31.1914 115.804 30.9805C116.069 30.7695 116.266 30.4922 116.394 30.1484C116.521 29.8047 116.585 29.4323 116.585 29.0312C116.585 28.6302 116.521 28.2565 116.394 27.9102C116.266 27.5638 116.069 27.2839 115.804 27.0703C115.538 26.8568 115.2 26.75 114.788 26.75C114.377 26.75 114.038 26.8568 113.772 27.0703C113.507 27.2839 113.31 27.5638 113.183 27.9102C113.055 28.2565 112.991 28.6302 112.991 29.0312C112.991 29.4323 113.055 29.8047 113.183 30.1484C113.31 30.4922 113.507 30.7695 113.772 30.9805C114.038 31.1914 114.377 31.2969 114.788 31.2969ZM118.914 32V26H119.805V26.9375H119.883C120.008 26.6172 120.21 26.3685 120.488 26.1914C120.767 26.0117 121.102 25.9219 121.492 25.9219C121.888 25.9219 122.217 26.0117 122.48 26.1914C122.746 26.3685 122.953 26.6172 123.102 26.9375H123.164C123.318 26.6276 123.548 26.3815 123.855 26.1992C124.163 26.0143 124.531 25.9219 124.961 25.9219C125.497 25.9219 125.936 26.0898 126.277 26.4258C126.618 26.7591 126.789 27.2786 126.789 27.9844V32H125.867V27.9844C125.867 27.5417 125.746 27.2253 125.504 27.0352C125.262 26.8451 124.977 26.75 124.648 26.75C124.227 26.75 123.9 26.8776 123.668 27.1328C123.436 27.3854 123.32 27.7057 123.32 28.0937V32H122.383V27.8906C122.383 27.5495 122.272 27.2747 122.051 27.0664C121.829 26.8555 121.544 26.75 121.195 26.75C120.956 26.75 120.732 26.8138 120.523 26.9414C120.318 27.069 120.151 27.2461 120.023 27.4727C119.898 27.6966 119.836 27.9557 119.836 28.25V32H118.914ZM134.24 26V26.7812H131.006V26H134.24ZM131.975 32V25.1719C131.975 24.8281 132.055 24.5417 132.217 24.3125C132.378 24.0833 132.588 23.9115 132.846 23.7969C133.104 23.6823 133.376 23.625 133.662 23.625C133.889 23.625 134.074 23.6432 134.217 23.6797C134.36 23.7161 134.467 23.75 134.537 23.7812L134.271 24.5781C134.225 24.5625 134.16 24.543 134.076 24.5195C133.995 24.4961 133.889 24.4844 133.756 24.4844C133.451 24.4844 133.231 24.5612 133.096 24.7148C132.963 24.8685 132.896 25.0937 132.896 25.3906V32H131.975ZM135.532 32V26H136.454V32H135.532ZM136.001 25C135.821 25 135.666 24.9388 135.536 24.8164C135.409 24.694 135.345 24.5469 135.345 24.375C135.345 24.2031 135.409 24.056 135.536 23.9336C135.666 23.8112 135.821 23.75 136.001 23.75C136.181 23.75 136.334 23.8112 136.462 23.9336C136.592 24.056 136.657 24.2031 136.657 24.375C136.657 24.5469 136.592 24.694 136.462 24.8164C136.334 24.9388 136.181 25 136.001 25ZM139.064 24V32H138.143V24H139.064ZM143.269 32.125C142.69 32.125 142.192 31.9974 141.772 31.7422C141.356 31.4844 141.034 31.125 140.808 30.6641C140.584 30.2005 140.472 29.6615 140.472 29.0469C140.472 28.4323 140.584 27.8906 140.808 27.4219C141.034 26.9505 141.349 26.5833 141.753 26.3203C142.159 26.0547 142.633 25.9219 143.175 25.9219C143.487 25.9219 143.796 25.974 144.101 26.0781C144.405 26.1823 144.683 26.3516 144.933 26.5859C145.183 26.8177 145.382 27.125 145.53 27.5078C145.679 27.8906 145.753 28.362 145.753 28.9219V29.3125H141.128V28.5156H144.815C144.815 28.1771 144.748 27.875 144.612 27.6094C144.479 27.3437 144.289 27.1341 144.042 26.9805C143.797 26.8268 143.508 26.75 143.175 26.75C142.808 26.75 142.49 26.8411 142.222 27.0234C141.956 27.2031 141.752 27.4375 141.608 27.7266C141.465 28.0156 141.394 28.3255 141.394 28.6562V29.1875C141.394 29.6406 141.472 30.0247 141.628 30.3398C141.787 30.6523 142.007 30.8906 142.288 31.0547C142.569 31.2161 142.896 31.2969 143.269 31.2969C143.511 31.2969 143.729 31.263 143.925 31.1953C144.123 31.125 144.293 31.0208 144.437 30.8828C144.58 30.7422 144.69 30.5677 144.769 30.3594L145.659 30.6094C145.565 30.9115 145.408 31.1771 145.187 31.4062C144.965 31.6328 144.692 31.8099 144.366 31.9375C144.041 32.0625 143.675 32.125 143.269 32.125Z" fill="#E2E2E2"/>
</g>
<defs>
<clipPath id="clip0_11_1075">
<rect width="329" height="324" fill="white"/>
</clipPath>
</defs>
</svg>
